# xmcd
#
# Track frame offsets:
#	150
#	19842
#	54772
#	80170
#	108792
#	120290
#	144015
#	170937
#	188632
#	217950
#	233215
#	256120
#
# Disc length: 3879 seconds
#
# Revision: 1
# Processed by: cddbd v1.5.1PL0 Copyright (c) Steve Scherf et al.
# Submitted via: CDex 1.50Beta5
#
DISCID=920f250c
DTITLE=半野喜弘 - PORTRAIT OF A POET(詩人の肖像)
DYEAR=1998
DGENRE=Rock
TTITLE0=FILM OF…MY LIFE
TTITLE1=INHARMONIC
TTITLE2=CHILD’S BEAT VOX
TTITLE3=BRILLIANT WATER
TTITLE4=SLIPPING TURNTABLES
TTITLE5=METAL LEAF
TTITLE6=SACRIFICE
TTITLE7=CORIDORR
TTITLE8=SLOW RIVER,FAST CAR
TTITLE9=LETTERS FROM EMPTINESS
TTITLE10=SONATINA
TTITLE11=FORTUNE’S WHEEL
EXTD=
EXTT0=
EXTT1=
EXTT2=
EXTT3=
EXTT4=
EXTT5=
EXTT6=
EXTT7=
EXTT8=
EXTT9=
EXTT10=
EXTT11=
PLAYORDER=
